%TF.GenerationSoftware,KiCad,Pcbnew,8.0.5*%
%TF.CreationDate,2025-01-31T23:43:47+11:00*%
%TF.ProjectId,differential,64696666-6572-4656-9e74-69616c2e6b69,rev?*%
%TF.SameCoordinates,PX8d24d00PY7b06240*%
%TF.FileFunction,Copper,L2,Bot*%
%TF.FilePolarity,Positive*%
%FSLAX46Y46*%
G04 Gerber Fmt 4.6, Leading zero omitted, Abs format (unit mm)*
G04 Created by KiCad (PCBNEW 8.0.5) date 2025-01-31 23:43:47*
%MOMM*%
%LPD*%
G01*
G04 APERTURE LIST*
%TA.AperFunction,Conductor*%
%ADD10C,0.100000*%
%TD*%
%TA.AperFunction,Conductor*%
%ADD11C,0.200000*%
%TD*%
G04 APERTURE END LIST*
D10*
%TO.N,GND*%
X590000Y2293750D02*
X590000Y2486250D01*
X840000Y2300000D02*
X840000Y2483750D01*
X590000Y583750D02*
X590000Y710000D01*
X840000Y580000D02*
X840000Y710000D01*
D11*
X170000Y2635000D02*
X280000Y2635000D01*
X280000Y375000D01*
X170000Y375000D01*
X170000Y2635000D01*
%TA.AperFunction,Conductor*%
G36*
X170000Y2635000D02*
G01*
X280000Y2635000D01*
X280000Y375000D01*
X170000Y375000D01*
X170000Y2635000D01*
G37*
%TD.AperFunction*%
X1150000Y2645000D02*
X1260000Y2645000D01*
X1260000Y385000D01*
X1150000Y385000D01*
X1150000Y2645000D01*
%TA.AperFunction,Conductor*%
G36*
X1150000Y2645000D02*
G01*
X1260000Y2645000D01*
X1260000Y385000D01*
X1150000Y385000D01*
X1150000Y2645000D01*
G37*
%TD.AperFunction*%
%TD*%
%TA.AperFunction,Conductor*%
%TO.N,GND*%
G36*
X1355000Y344800D02*
G01*
X1355000Y104000D01*
X1340648Y69352D01*
X1306000Y55000D01*
X99000Y55000D01*
X64352Y69352D01*
X50000Y104000D01*
X50000Y541000D01*
X64352Y575648D01*
X75100Y580101D01*
X85000Y590000D01*
X1355000Y590000D01*
X1355000Y344800D01*
G37*
%TD.AperFunction*%
%TD*%
%TA.AperFunction,Conductor*%
%TO.N,GND*%
G36*
X1320648Y2845648D02*
G01*
X1328777Y2826023D01*
X1335000Y2819800D01*
X1335000Y2360000D01*
X85000Y2360000D01*
X71564Y2373436D01*
X69352Y2374352D01*
X55000Y2409000D01*
X55000Y2811000D01*
X69352Y2845648D01*
X104000Y2860000D01*
X1286000Y2860000D01*
X1320648Y2845648D01*
G37*
%TD.AperFunction*%
%TD*%
%TA.AperFunction,Conductor*%
%TO.N,GND*%
G36*
X1371632Y2816432D02*
G01*
X1375000Y2808300D01*
X1375000Y356300D01*
X1371632Y348168D01*
X1363500Y344800D01*
X1355000Y344800D01*
X1355000Y590000D01*
X831090Y590000D01*
X712124Y708966D01*
X593159Y590000D01*
X85000Y590000D01*
X85000Y929737D01*
X296500Y929737D01*
X296500Y768209D01*
X393926Y670783D01*
X572116Y848973D01*
X852131Y848973D01*
X1030322Y670783D01*
X1163500Y803960D01*
X1163500Y893986D01*
X1030322Y1027164D01*
X852131Y848973D01*
X572116Y848973D01*
X393926Y1027164D01*
X296500Y929737D01*
X85000Y929737D01*
X85000Y1167171D01*
X533933Y1167171D01*
X712124Y988981D01*
X890314Y1167171D01*
X712124Y1345362D01*
X533933Y1167171D01*
X85000Y1167171D01*
X85000Y1566133D01*
X296500Y1566133D01*
X296500Y1404605D01*
X393926Y1307179D01*
X572116Y1485369D01*
X852131Y1485369D01*
X1030322Y1307179D01*
X1163500Y1440356D01*
X1163500Y1530382D01*
X1030322Y1663560D01*
X852131Y1485369D01*
X572116Y1485369D01*
X393926Y1663560D01*
X296500Y1566133D01*
X85000Y1566133D01*
X85000Y1803567D01*
X533933Y1803567D01*
X712124Y1625377D01*
X890314Y1803567D01*
X712124Y1981758D01*
X533933Y1803567D01*
X85000Y1803567D01*
X85000Y2202529D01*
X296500Y2202529D01*
X296500Y2041001D01*
X393926Y1943575D01*
X572116Y2121765D01*
X852131Y2121765D01*
X1030322Y1943575D01*
X1163500Y2076752D01*
X1163500Y2166778D01*
X1030322Y2299956D01*
X852131Y2121765D01*
X572116Y2121765D01*
X393926Y2299956D01*
X296500Y2202529D01*
X85000Y2202529D01*
X85000Y2360000D01*
X613896Y2360000D01*
X712124Y2261773D01*
X810351Y2360000D01*
X1335000Y2360000D01*
X1335000Y2819800D01*
X1335001Y2819800D01*
X1363500Y2819800D01*
X1371632Y2816432D01*
G37*
%TD.AperFunction*%
%TD*%
M02*
